<?xml version="1.0" encoding="utf-8"?>
<!-- Generator: Adobe Illustrator 17.0.0, SVG Export Plug-In . SVG Version: 6.00 Build 0)  -->
<!DOCTYPE svg PUBLIC "-//W3C//DTD SVG 1.1//EN" "http://www.w3.org/Graphics/SVG/1.1/DTD/svg11.dtd" [
	<!ENTITY ns_extend "http://ns.adobe.com/Extensibility/1.0/">
	<!ENTITY ns_ai "http://ns.adobe.com/AdobeIllustrator/10.0/">
	<!ENTITY ns_graphs "http://ns.adobe.com/Graphs/1.0/">
	<!ENTITY ns_vars "http://ns.adobe.com/Variables/1.0/">
	<!ENTITY ns_imrep "http://ns.adobe.com/ImageReplacement/1.0/">
	<!ENTITY ns_sfw "http://ns.adobe.com/SaveForWeb/1.0/">
	<!ENTITY ns_custom "http://ns.adobe.com/GenericCustomNamespace/1.0/">
	<!ENTITY ns_adobe_xpath "http://ns.adobe.com/XPath/1.0/">
]>
<svg version="1.1" xmlns:x="&ns_extend;" xmlns:i="&ns_ai;" xmlns:graph="&ns_graphs;"
	 xmlns="http://www.w3.org/2000/svg" xmlns:xlink="http://www.w3.org/1999/xlink" x="0px" y="0px" width="100px" height="100px"
	 viewBox="0 0 100 100" enable-background="new 0 0 100 100" xml:space="preserve">
<metadata>
	<sfw  xmlns="&ns_sfw;">
		<slices></slices>
		<sliceSourceBounds  height="-32766" width="-32766" x="8498" y="24970" bottomLeftOrigin="true"></sliceSourceBounds>
	</sfw>
</metadata>
<g id="Layer_2">
</g>
<g id="Layer_3">
</g>
<g id="Layer_1">
	<path fill="#3EB4F0" stroke="#3EB4F0" stroke-miterlimit="10" d="M58.694,78.76c0,1.125-0.505,2.037-1.127,2.037H42.113
		c-0.622,0-1.127-0.912-1.127-2.037l0,0c0-1.125,0.505-2.037,1.127-2.037h15.454C58.19,76.723,58.694,77.635,58.694,78.76
		L58.694,78.76z"/>
	<path fill="#3EB4F0" stroke="#3EB4F0" stroke-miterlimit="10" d="M58.694,96.838c0,1.125-0.505,2.037-1.127,2.037H42.113
		c-0.622,0-1.127-0.912-1.127-2.037l0,0c0-1.125,0.505-2.037,1.127-2.037h15.454C58.19,94.801,58.694,95.713,58.694,96.838
		L58.694,96.838z"/>
	<path fill="#3EB4F0" stroke="#3EB4F0" stroke-miterlimit="10" d="M58.694,87.799c0,1.125-0.505,2.037-1.127,2.037H42.113
		c-0.622,0-1.127-0.912-1.127-2.037l0,0c0-1.125,0.505-2.037,1.127-2.037h15.454C58.19,85.762,58.694,86.674,58.694,87.799
		L58.694,87.799z"/>
	<path fill="none" stroke="#3EB4F0" stroke-width="4" stroke-miterlimit="10" d="M42.414,72.522c0,0-4.705-18.82-14.115-27.445
		S20.458,2.733,50.256,2.733"/>
	<path fill="none" stroke="#3EB4F0" stroke-width="4" stroke-miterlimit="10" d="M57.101,72.522c0,0,4.705-18.82,14.115-27.445
		S79.057,2.733,49.26,2.733"/>
	<g>
		<path fill="#D4584D" d="M47.453,35.896c1.29,2.233,1.431,4.918,0.425,8.053c-0.335,0.918-0.666,1.844-0.993,2.777
			c-0.42,1.328-0.626,2.645-0.618,3.947c0.013,0.616,0.402,2.002,1.163,4.157c0.657,1.835,0.366,3.109-0.871,3.823
			c-1.388,0.802-2.605,0.296-3.651-1.515c-0.862-1.493-1.354-3.262-1.474-5.305s0.153-3.9,0.821-5.574
			c0.825-2.065,1.309-3.481,1.451-4.247c0.236-1.304,0.045-2.491-0.573-3.563c-0.653-1.132-1.646-1.812-2.976-2.039
			c-1.331-0.227-2.722,0.078-4.173,0.916c-0.967,0.559-1.778,1.545-2.433,2.959s-1.186,2.239-1.594,2.475
			c-0.484,0.279-1.016,0.318-1.594,0.121c-0.578-0.2-1.033-0.586-1.364-1.159c-0.566-0.981-0.39-2.261,0.531-3.837
			c0.981-1.714,2.528-3.18,4.641-4.4c2.73-1.577,5.296-2.143,7.696-1.698C44.267,32.233,46.129,33.603,47.453,35.896z
			 M53.028,61.494c0.496,0.86,0.615,1.738,0.357,2.631c-0.259,0.895-0.863,1.615-1.814,2.164c-0.92,0.532-1.824,0.691-2.71,0.479
			c-0.888-0.213-1.579-0.748-2.076-1.609c-0.514-0.891-0.637-1.799-0.369-2.729c0.268-0.929,0.862-1.66,1.782-2.191
			c0.905-0.522,1.808-0.666,2.708-0.432C51.808,60.043,52.515,60.605,53.028,61.494z"/>
	</g>
	<g>
		<path fill="#D4584D" d="M48.773,59.81c0.9-0.234,1.802-0.091,2.708,0.432c0.921,0.531,1.515,1.262,1.783,2.191
			s0.146,1.839-0.368,2.729c-0.497,0.859-1.188,1.396-2.076,1.608c-0.887,0.212-1.79,0.052-2.71-0.479
			c-0.95-0.549-1.556-1.271-1.814-2.164c-0.258-0.893-0.139-1.771,0.357-2.63C47.165,60.607,47.873,60.044,48.773,59.81z
			 M57.813,31.79c2.398-0.445,4.965,0.121,7.695,1.697c2.113,1.22,3.659,2.686,4.643,4.4c0.92,1.577,1.097,2.856,0.53,3.837
			c-0.331,0.574-0.786,0.96-1.365,1.159c-0.578,0.199-1.108,0.159-1.592-0.12c-0.408-0.236-0.941-1.061-1.595-2.475
			c-0.655-1.414-1.467-2.401-2.435-2.959c-1.451-0.838-2.842-1.143-4.173-0.916c-1.33,0.228-2.321,0.907-2.975,2.039
			c-0.619,1.071-0.81,2.259-0.574,3.562c0.143,0.767,0.626,2.183,1.451,4.247c0.668,1.674,0.941,3.532,0.821,5.574
			c-0.12,2.043-0.611,3.812-1.474,5.305c-1.046,1.811-2.263,2.315-3.65,1.514c-1.237-0.714-1.528-1.988-0.872-3.822
			c0.763-2.155,1.15-3.54,1.163-4.156c0.009-1.303-0.197-2.619-0.617-3.948c-0.327-0.932-0.657-1.857-0.992-2.775
			c-1.007-3.136-0.865-5.82,0.424-8.053C53.552,33.605,55.414,32.235,57.813,31.79z"/>
	</g>
</g>
<g id="Layer_4" display="none">
	
		<text transform="matrix(1 0 0 1 36.8192 62.3131)" display="inline" fill="#52AB62" font-family="'KristenITC-Regular'" font-size="69.1841">?</text>
</g>
</svg>
